inDegrees=yes
name=ik_02012121_23339._orientations
DataType=double
version=3
OpenSimVersion=4.1
endheader
time	pelvis_tilt	pelvis_list	pelvis_rotation	pelvis_tx	pelvis_ty	pelvis_tz	hip_flexion_r	hip_adduction_r	hip_rotation_r	knee_angle_r	knee_angle_r_beta	ankle_angle_r	subtalar_angle_r	mtp_angle_r	hip_flexion_l	hip_adduction_l	hip_rotation_l	knee_angle_l	knee_angle_l_beta	ankle_angle_l	subtalar_angle_l	mtp_angle_l	lumbar_extension	lumbar_bending	lumbar_rotation	arm_flex_r	arm_add_r	arm_rot_r	elbow_flex_r	pro_sup_r	wrist_flex_r	wrist_dev_r	arm_flex_l	arm_add_l	arm_rot_l	elbow_flex_l	pro_sup_l	wrist_flex_l	wrist_dev_l
41.25777777778272	-14.930876582683	-42.10847495097894	93.53733275185432	0	0.9399999999999999	0	37.61006920497137	-13.72980318253389	8.244897674531295	0.07438131904382259	0.001298198919291064	-4.999999851189042	0	0	45.00443335382764	-10.00000000333643	0	60.01708069195672	1.047495665509761	-4.999999851189042	0	0	0	0	0	0	-15.22586440627249	0	74.99253214031229	45.00000071306353	0	0	0	-15.22586440627249	0	74.99253214031229	45.00000071306353	0	0
41.26222222222717	-14.93107420007247	-42.10302489618006	93.53886131500784	0	0.9399999999999999	0	37.61696375627582	-13.72749554880914	8.246596024868532	0.07458535812619572	0.001301760073081224	-4.999999851188979	0	0	45.00443291515659	-10.00000000333137	0	60.01707937370939	1.047495642502005	-4.999999851188979	0	0	0	0	0	0	-15.2258529457688	0	74.99253289665768	45.00000071293915	0	0	0	-15.2258529457688	0	74.99253289665768	45.00000071293915	0	0
41.26666666667161	-14.93095960083589	-42.09737034010814	93.54129701438906	0	0.9399999999999999	0	37.62397502402779	-13.72543519344013	8.249551838161175	0.07458167525883347	0.001301695794919838	-4.999999851188916	0	0	45.00443247878395	-10.00000000332634	0	60.01707806229809	1.04749561961356	-4.999999851188916	0	0	0	0	0	0	-15.22584154447673	0	74.99253364904028	45.00000071281546	0	5.981958496866791e-52	0	-15.22584154447673	0	74.99253364904028	45.00000071281546	0	5.981958496866791e-52
41.27111111111606	-14.93053960483623	-42.09199063212507	93.54238187196783	0	0.9399999999999999	0	37.63082751932613	-13.72385760312368	8.25097976315209	0.07482616681259156	0.001305962977526233	-4.999999851188853	0	0	45.00443203652858	-10.00000000332124	0	60.01707673329039	1.047495596418	-4.999999851188853	0	0	0	0	0	0	-15.22582998965858	0	74.9925344115657	45.0000007126901	0	0	0	-15.22582998965858	0	74.9925344115657	45.0000007126901	0	0
41.2755555555605	-14.93003289400077	-42.08678887006021	93.54358569704949	0	0.9399999999999999	0	37.63758473832751	-13.72232883655423	8.252624783472617	0.07483557151061755	0.001306127120471943	-4.999999851188789	0	0	45.00443159426278	-10.00000000331615	0	60.01707540420544	1.047495573221092	-4.999999851188789	0	0	0	0	0	0	-15.22581843388637	0	74.99253517410908	45.00000071256476	0	0	0	-15.22581843388637	0	74.99253517410908	45.00000071256476	0	0
41.28000000000495	-14.92954362335225	-42.08163850183607	93.54475960220206	0	0.9399999999999999	0	37.64430117999338	-13.72077704125867	8.254236666210943	0.07486446000311418	0.001306631319781947	-4.999999851188725	0	0	45.00443115196013	-10.00000000331105	0	60.01707407497561	1.047495550021655	-4.999999851188725	0	0	0	0	0	0	-15.22580687655069	0	74.99253593671602	45.00000071243943	0	0	0	-15.22580687655069	0	74.99253593671602	45.00000071243943	0	0
41.28444444444939	-14.92800038625981	-42.07701535010829	93.54788858305075	0	0.9399999999999999	0	37.65052832595363	-13.72003382747502	8.258975744788229	0.07450894821535678	0.001300426468555929	-4.999999851188663	0	0	45.00443071284268	-10.00000000330599	0	60.01707275504138	1.047495526984456	-4.999999851188663	0	0	0	0	0	0	-15.22579540023467	0	74.99253669383108	45.00000071231506	0	0	0	-15.22579540023467	0	74.99253669383108	45.00000071231506	0	0
41.28888888889384	-14.92664352617611	-42.07281188951166	93.55062277302837	0	0.9399999999999999	0	37.65644273363648	-13.71908266908191	8.263228022784331	0.07431270158328927	0.001297001318680401	-4.9999998511886	0	0	45.00443027244076	-10.00000000330092	0	60.01707143118574	1.047495503878817	-4.9999998511886	0	0	0	0	0	0	-15.22578388957702	0	74.99253745316082	45.00000071219036	0	0	0	-15.22578388957702	0	74.99253745316082	45.00000071219036	0	0
41.29333333333828	-14.92577815348436	-42.06889235011566	93.55487533746835	0	0.9399999999999999	0	37.66199889102088	-13.7173052578129	8.26924212181596	0.07401561853424041	0.001291816241322635	-4.99999985118854	0	0	45.00442984035986	-10.00000000329595	0	60.01707013213156	1.047495481206044	-4.99999985118854	0	0	0	0	0	0	-15.22577259464076	0	74.99253819814368	45.00000071206806	0	0	0	-15.22577259464076	0	74.99253819814368	45.00000071206806	0	0
41.29777777778273	-14.92569074482672	-42.06458087420801	93.56020198408915	0	0.9399999999999999	0	37.66762973975046	-13.71457321643975	8.27617771236071	0.07407483318167897	0.001292849731885845	-4.99999985118848	0	0	45.00442941440966	-10.00000000329106	0	60.01706885148128	1.04749545885448	-4.99999985118848	0	0	0	0	0	0	-15.22576145943787	0	74.99253893255612	45.00000071194752	0	0	0	-15.22576145943787	0	74.99253893255612	45.00000071194752	0	0
41.30222222222717	-14.92616756259329	-42.06092154387225	93.56432028025307	0	0.9399999999999999	0	37.67291527072155	-13.71131552431245	8.281429144042859	0.07408476734317453	0.001293023115712367	-4.999999851188419	0	0	45.00442898433097	-10.00000000328611	0	60.01706755841449	1.047495436286207	-4.999999851188419	0	0	0	0	0	0	-15.22575021592467	0	74.99253967408679	45.00000071182584	0	0	0	-15.22575021592467	0	74.99253967408679	45.00000071182584	0	0
41.30666666667162	-14.92640040288346	-42.05612101824838	93.5695464144235	0	0.9399999999999999	0	37.67895674237838	-13.70832734121471	8.287961904661325	0.07400295595628838	0.001291595237645581	-4.999999851188359	0	0	45.00442855952502	-10.00000000328123	0	60.01706628123863	1.047495413995283	-4.999999851188359	0	0	0	0	0	0	-15.22573911016655	0	74.99254040652637	45.00000071170565	0	0	0	-15.22573911016655	0	74.99254040652637	45.00000071170565	0	0
41.31111111111606	-14.92479022069666	-42.0520592383013	93.57612553041238	0	0.9399999999999999	0	37.68424592626815	-13.70696250296023	8.297354881132206	0.07397183700601909	0.001291052109503618	-4.999999851188297	0	0	45.00442813582657	-10.00000000327636	0	60.01706500712307	1.047495391757772	-4.999999851188297	0	0	0	0	0	0	-15.2257280312281	0	74.99254113705641	45.00000071158583	0	0	0	-15.2257280312281	0	74.99254113705641	45.00000071158583	0	0
41.31555555556051	-14.92241379159923	-42.04870128469079	93.58363680886742	0	0.9399999999999999	0	37.68889330108772	-13.70612009893644	8.308461165256144	0.07370681902139968	0.001286426673095009	-4.999999851188236	0	0	45.00442771371358	-10.00000000327151	0	60.0170637376297	1.047495369600932	-4.999999851188236	0	0	0	0	0	0	-15.2257169924341	0	74.99254186485287	45.00000071146652	0	-4.098131180198761e-37	0	-15.2257169924341	0	74.99254186485287	45.00000071146652	0	-4.098131180198761e-37
41.32000000000495	-14.91923891778136	-42.04587962523031	93.59403781577565	0	0.9399999999999999	0	37.69256113839542	-13.70553778646206	8.323619759240819	0.07376727560108008	0.001287481839464926	-4.999999851188177	0	0	45.00442729730247	-10.00000000326673	0	60.01706248521481	1.047495347742169	-4.999999851188177	0	0	0	0	0	0	-15.22570610195622	0	74.99254258281827	45.00000071134883	0	0	0	-15.22570610195622	0	74.99254258281827	45.00000071134883	0	0
41.3244444444494	-14.91616836688189	-42.04299486076712	93.60436982421436	0	0.9399999999999999	0	37.69631831147081	-13.70486997735858	8.33864278483707	0.073662846149617	0.001285659201700844	-4.999999851188117	0	0	45.00442688122413	-10.00000000326195	0	60.01706123380109	1.047495325900879	-4.999999851188117	0	0	0	0	0	0	-15.22569521984986	0	74.99254330020993	45.00000071123127	0	2.694034605743505e-36	0	-15.22569521984986	0	74.99254330020993	45.00000071123127	0	2.694034605743505e-36
41.32888888889384	-14.91267679182367	-42.03960753087824	93.61539415671285	0	0.9399999999999999	0	37.7003030055757	-13.70459901094007	8.354582959055387	0.07379249777982166	0.001287922049528494	-4.999999851188057	0	0	45.00442646678297	-10.0000000032572	0	60.01705998731597	1.04749530414561	-4.999999851188057	0	0	0	0	0	0	-15.22568438026782	0	74.99254401477879	45.00000071111418	0	0	0	-15.22568438026782	0	74.99254401477879	45.00000071111418	0	0
41.33333333333829	-14.90828284178473	-42.03671150674816	93.62524340942063	0	0.9399999999999999	0	37.70411090108191	-13.70532870722237	8.369664694451856	0.07392902152599284	0.001290304838406338	-4.999999851187997	0	0	45.00442604778037	-10.00000000325239	0	60.01705872690946	1.047495282147366	-4.999999851187997	0	0	0	0	0	0	-15.22567341970346	0	74.99254473721237	45.00000071099586	0	0	0	-15.22567341970346	0	74.99254473721237	45.00000071099586	0	0
41.33777777778273	-14.90530868149739	-42.03311187034394	93.63546114171974	0	0.9399999999999999	0	37.70841115515553	-13.70469952790741	8.384405221897293	0.0739433955842435	0.001290555713049685	-4.999999851187938	0	0	45.00442563275053	-10.00000000324763	0	60.0170574786456	1.047495260361052	-4.999999851187938	0	0	0	0	0	0	-15.22566256400625	0	74.99254545279622	45.00000071087862	0	0	0	-15.22566256400625	0	74.99254545279622	45.00000071087862	0	0
41.34222222222718	-14.90181078316646	-42.0295787917225	93.64411591420118	0	0.9399999999999999	0	37.71294167476956	-13.70482912152624	8.39753288255543	0.07390071115059452	0.001289810729143161	-4.999999851187879	0	0	45.00442521329636	-10.00000000324282	0	60.01705621694507	1.047495238340224	-4.999999851187879	0	0	0	0	0	0	-15.22565159138593	0	74.99254617600839	45.00000071076017	0	0	0	-15.22565159138593	0	74.99254617600839	45.00000071076017	0	0
41.34666666667162	-14.89797021038073	-42.02693607628972	93.65180089893016	0	0.9399999999999999	0	37.71695639044798	-13.705328051364	8.409822727199044	0.0737518567662289	0.001287212730029952	-4.999999851187818	0	0	45.00442478924278	-10.00000000323796	0	60.01705494125893	1.0474952160753	-4.999999851187818	0	0	0	0	0	0	-15.22564049709895	0	74.99254690715078	45.00000071064047	0	0	0	-15.22564049709895	0	74.99254690715078	45.00000071064047	0	0
41.35111111111607	-14.89635129292421	-42.0241725235981	93.65737174994602	0	0.9399999999999999	0	37.72144582363964	-13.70387483570438	8.418281518210245	0.07323732488807189	0.001278232454649642	-4.999999851187757	0	0	45.0044243617783	-10.00000000323305	0	60.01705365551204	1.047495193634784	-4.999999851187757	0	0	0	0	0	0	-15.22562931454962	0	74.99254764417412	45.0000007105198	0	0	0	-15.22562931454962	0	74.99254764417412	45.0000007105198	0	0
